<svg width="20" height="21" viewBox="0 0 20 21" fill="none" xmlns="http://www.w3.org/2000/svg">
<mask id="mask0_7_128" style="mask-type:luminance" maskUnits="userSpaceOnUse" x="0" y="0" width="20" height="21">
<path d="M0 0H19.4683V20.2734H0V0Z" fill="white"/>
</mask>
<g mask="url(#mask0_7_128)">
<path d="M19.323 8.63248C19.1863 7.71592 18.994 6.81261 18.6435 5.95335C18.4427 5.4642 18.182 5.01037 17.9042 4.5653C17.8444 4.46833 17.7974 4.36259 17.7418 4.25686C17.759 4.24361 17.7717 4.23486 17.7889 4.22162C17.8658 4.30093 17.947 4.37142 18.0153 4.45515C18.2076 4.6931 18.3743 4.94872 18.5196 5.21748L18.6521 5.15582C18.5111 4.90021 18.3616 4.65351 18.1991 4.40673C17.5667 3.45051 16.8103 2.6221 15.8873 1.95683C15.0711 1.37078 14.1823 0.93013 13.2378 0.599616C11.9089 0.132538 10.5543 -0.0965697 9.14398 0.0224058C7.99019 0.119383 6.92197 0.440982 5.92201 0.947798C5.40071 1.21658 4.89644 1.53385 4.40924 1.89518C3.74686 2.39307 3.11874 2.93513 2.57601 3.57408C2.09317 4.13813 1.64869 4.73743 1.32816 5.41604C0.900819 6.32819 0.665791 7.30641 0.503376 8.29783C0.430739 8.74732 0.362382 9.20115 0.289751 9.65064C0.281188 9.70796 0.251291 9.76079 0.229957 9.81811C0.217112 9.81369 0.204343 9.80928 0.191498 9.80486C0.212831 9.514 0.221394 9.22323 0.255571 8.9368C0.341054 8.1392 0.520502 7.36812 0.764106 6.60587C1.0675 5.65406 1.43925 4.74192 2.03757 3.93982C2.10592 3.85167 2.16151 3.75478 2.22558 3.66221C2.14866 3.75036 2.07174 3.83851 1.99911 3.931C1.41366 4.68009 0.982025 5.51734 0.648732 6.41184C0.09745 7.91004 -0.0991372 9.44353 0.0462215 11.0166C0.157318 12.224 0.443665 13.3872 0.926508 14.4933C1.14013 14.9824 1.40087 15.2115 1.62307 15.6963C1.8367 16.1633 2.0803 16.5643 2.37942 16.9786C2.64008 17.3399 2.91786 17.5602 3.18708 17.9171C3.38367 18.1727 3.49476 18.2212 3.69561 18.4679C3.73407 18.5164 3.89647 18.7191 3.95627 18.7367C4.06309 18.7631 4.18274 18.913 4.28109 18.957C4.48623 19.0451 4.68282 19.1597 4.8836 19.2654C5.25106 19.4593 5.52886 19.6708 5.8964 19.8603C5.93914 19.8823 6.12287 19.9264 6.18694 19.9441C6.15276 19.8736 6.0929 19.9176 6.05444 19.8339C6.22961 19.8868 6.36211 19.9221 6.54586 19.9837C6.78517 20.063 7.23384 20.1997 7.47745 20.2701C7.55437 20.2921 7.51162 20.2305 7.59283 20.2305C7.59711 20.2217 7.72533 20.2525 7.72954 20.2437C7.68252 20.2041 7.81074 20.2041 7.75515 20.1556C7.78505 20.1379 7.80218 20.1292 7.82351 20.1159C8.06283 19.9396 8.31064 19.9 8.54569 19.7149C8.62689 19.6533 8.69953 19.5607 8.66963 19.4329C8.62689 19.2566 8.59699 19.0715 8.53292 18.8997C8.47733 18.7587 8.40469 18.6044 8.2936 18.5119C8.04571 18.3092 8.0201 18.0537 7.75945 17.8685C7.57572 17.7407 7.0031 17.5249 6.83213 17.3794C6.60137 17.1723 6.12701 17.1678 5.9091 16.9476C5.64417 16.6788 5.23395 16.4276 4.99891 16.1324C3.27677 14.5813 2.87073 12.9905 2.61863 11.7833C2.58017 11.6158 2.59302 11.0474 2.55456 10.8579C2.52466 10.9063 2.50753 10.9328 2.47764 10.9768C2.46479 10.9108 2.4563 10.8711 2.45202 10.827C2.34949 9.61529 2.47336 8.42987 2.87937 7.28414C3.02036 6.88313 3.18705 6.50421 3.38363 6.14729C4.10152 4.81214 5.16563 3.78542 6.49465 2.99662C6.9733 2.71018 7.47327 2.49872 7.98602 2.34883C8.74237 2.12855 9.5287 2.05356 10.3407 2.08889C11.4176 2.13738 12.4347 2.44582 13.4088 2.89973C14.1225 3.23024 14.7977 3.63558 15.3574 4.20404C15.6651 4.51689 15.9343 4.87381 16.1992 5.22634C16.7462 5.95786 17.1479 6.77302 17.4257 7.64987C17.4428 7.70719 17.4598 7.76443 17.477 7.82175L17.6437 7.77326C17.6009 7.62346 17.5625 7.47366 17.5197 7.32819C17.5026 7.26654 17.5069 7.19597 17.4984 7.11223C17.571 7.13865 17.6095 7.15631 17.6608 7.17389C17.7249 6.96235 17.6095 6.78613 17.5967 6.59668C18.1266 7.66746 18.383 8.80863 18.383 10.003C18.383 10.7388 18.3275 11.4747 18.2548 12.2062C18.2121 12.616 17.9557 13.061 17.8659 13.462C17.8616 13.4928 17.7719 13.7308 17.6865 13.9467C17.7762 13.7925 17.8745 13.625 18.007 13.4223C18.0198 13.4268 18.0326 13.4312 18.0497 13.44C18.1566 13.2109 18.2378 13.017 18.2506 12.9685C18.3873 12.475 18.4942 12.2414 18.5284 11.7259C18.554 11.3425 18.584 10.9635 18.5882 10.5846C18.5924 10.0514 18.5626 9.73852 18.5284 9.20537C18.5028 8.85287 18.3831 8.27998 18.3105 7.9363C18.0883 6.94926 17.6353 6.06793 17.1225 5.21315C17.037 5.07217 16.9601 4.92671 16.8704 4.76366C17.4131 4.85622 18.7165 7.32817 18.7592 8.2889C18.6481 8.01129 18.5413 7.74251 18.4344 7.46932C18.4173 7.47373 18.4045 7.48256 18.3874 7.48698C18.819 8.88385 18.8702 10.3204 18.8318 11.7701C18.8574 11.5674 18.8874 11.3691 18.913 11.1664C18.9301 11.3339 18.9386 11.4969 18.913 11.66C18.8617 11.9772 18.8232 12.3033 18.7078 12.5941C18.6352 12.7747 18.5796 12.9599 18.507 13.1405C18.3275 13.59 18.1608 14.0482 17.9557 14.4801C17.7634 14.8811 17.5455 15.2732 17.3019 15.6478C17.1096 15.9474 16.8446 16.1986 16.6481 16.4939C16.4344 16.8112 16.1694 17.0579 15.8789 17.2827C15.5712 17.5206 15.2635 17.763 14.99 18.0406C14.7977 18.2389 14.5841 18.3931 14.3362 18.5561C14.3746 18.5914 14.4088 18.6487 14.4344 18.6443C14.5627 18.6179 14.6994 18.6663 14.819 18.5782C15.0113 18.4373 15.2421 18.3447 15.4088 18.1772C15.5925 17.9966 15.7762 17.8203 15.9942 17.6969C16.4557 17.4413 16.8147 17.0668 17.1224 16.6438C17.4942 16.1326 17.8275 15.5907 18.1864 15.0663C18.8744 14.066 19.2334 12.9467 19.3873 11.7439C19.5153 10.7125 19.4769 9.67251 19.323 8.63266L19.323 8.63248ZM16.9769 5.57441C17.0667 5.72863 17.2376 5.83878 17.2376 6.05032C17.2247 6.05915 17.212 6.06356 17.1991 6.07232C17.1136 5.91368 17.0282 5.75505 16.9427 5.59641C16.9555 5.592 16.9684 5.58317 16.9769 5.57441ZM16.6949 5.16458C16.6137 5.07644 16.5282 4.98395 16.447 4.8958C15.524 3.86468 14.4471 3.04944 13.1779 2.52065C12.8574 2.38843 12.5112 2.32677 12.1779 2.22105C12.0112 2.16814 11.8531 2.08883 11.6908 2.02276C11.6994 2.0051 11.7079 1.9831 11.7121 1.96544C12.054 2.06241 12.4001 2.1549 12.7377 2.26071C13.383 2.45459 14.0154 2.69696 14.6009 3.04064C15.2334 3.41523 15.776 3.9043 16.2461 4.48159C16.4 4.66664 16.5325 4.86935 16.6777 5.06765C16.6948 5.08523 16.7076 5.11606 16.6948 5.16455L16.6949 5.16458Z" fill="#5A5A15" fill-opacity="0.88"/>
</g>
</svg>
